<?xml version="1.0" encoding="utf-8"?>
<!-- Generator: Adobe Illustrator 26.4.1, SVG Export Plug-In . SVG Version: 6.00 Build 0)  -->
<svg version="1.1" id="Layer_1" xmlns="http://www.w3.org/2000/svg" xmlns:xlink="http://www.w3.org/1999/xlink" x="0px" y="0px"
	 viewBox="0 0 489.3 489.3" style="enable-background:new 0 0 489.3 489.3;" xml:space="preserve">
<style type="text/css">
	.st0{fill:#C91517;}
	.st1{fill:#E01514;}
	.st2{fill:#FFFFFF;}
	.st3{fill:#1D1D1B;}
</style>
<path class="st0" d="M481.6,162.8C481.6,88.9,421.7,29,347.9,29c-43.3,0-80.8,19.6-105.3,51.4C218.9,48.6,180.3,29,137.6,29
	c-71.8,0-130,58.2-130,130c0,30,5.8,62.1,22.9,84.1l0,0l214.1,215.2l198.8-199.9l0,0C467.8,234.1,481.6,199.9,481.6,162.8z"/>
<path class="st1" d="M244.6,82.5c0,0,117,84.1,2.2,373.5L22.5,230L7.6,164.6l20.4-77.9l55.3-46.7l61-12.2l69.7,24.1L244.6,82.5z"/>
<polygon class="st2" points="246.9,456 22.5,230 15.3,196.2 260.2,442.6 "/>
<path class="st3" d="M244.6,469.1L48.2,271.5C17.6,243,0,204,0,164.6C0,85,64.8,20.2,144.4,20.2c36.4,0,72.6,15.3,100.3,42.3
	c27.7-27,63.8-42.3,100.3-42.3c79.6,0,144.4,64.8,144.4,144.4c0,39.4-17.6,78.4-48.2,106.9L244.6,469.1z M144.4,35.5
	c-71.2,0-129.1,57.9-129.1,129.1c0,34.7,16.2,70.5,43.4,95.8l0.2,0.2l185.7,186.8l185.8-186.9l0.1-0.1
	c27.2-25.3,43.4-61.1,43.4-95.8c0-71.2-57.9-129.1-129.1-129.1c-34.7,0-69.2,15.7-94.7,43.1l-5.6,6l-5.6-6
	C213.6,51.2,179.1,35.5,144.4,35.5z"/>
<rect x="234.9" y="346.3" transform="matrix(0.7071 -0.7071 0.7071 0.7071 -164.0364 311.7852)" class="st3" width="118.9" height="15.3"/>
</svg>
